<svg width="31" height="31" viewBox="0 0 31 31" fill="none" xmlns="http://www.w3.org/2000/svg">
<path d="M6.45898 7.10482C6.45898 5.90582 6.93529 4.75593 7.78311 3.90811C8.63093 3.06029 9.78082 2.58398 10.9798 2.58398H15.5007V11.6257H10.9798C9.78082 11.6257 8.63093 11.1494 7.78311 10.3015C6.93529 9.45371 6.45898 8.30382 6.45898 7.10482Z" stroke="white" stroke-width="1.6" stroke-linecap="round" stroke-linejoin="round"/>
<path d="M15.5 2.58398H20.0208C20.6145 2.58398 21.2024 2.70092 21.7509 2.92811C22.2994 3.15531 22.7977 3.48831 23.2175 3.90811C23.6373 4.3279 23.9703 4.82628 24.1975 5.37477C24.4247 5.92326 24.5417 6.51113 24.5417 7.10482C24.5417 7.6985 24.4247 8.28637 24.1975 8.83487C23.9703 9.38336 23.6373 9.88173 23.2175 10.3015C22.7977 10.7213 22.2994 11.0543 21.7509 11.2815C21.2024 11.5087 20.6145 11.6257 20.0208 11.6257H15.5V2.58398Z" stroke="white" stroke-width="1.6" stroke-linecap="round" stroke-linejoin="round"/>
<path d="M15.5 16.1458C15.5 15.5521 15.6169 14.9643 15.8441 14.4158C16.0713 13.8673 16.4043 13.3689 16.8241 12.9491C17.2439 12.5293 17.7423 12.1963 18.2908 11.9691C18.8393 11.7419 19.4271 11.625 20.0208 11.625C20.6145 11.625 21.2024 11.7419 21.7509 11.9691C22.2994 12.1963 22.7977 12.5293 23.2175 12.9491C23.6373 13.3689 23.9703 13.8673 24.1975 14.4158C24.4247 14.9643 24.5417 15.5521 24.5417 16.1458C24.5417 16.7395 24.4247 17.3274 24.1975 17.8759C23.9703 18.4244 23.6373 18.9227 23.2175 19.3425C22.7977 19.7623 22.2994 20.0953 21.7509 20.3225C21.2024 20.5497 20.6145 20.6667 20.0208 20.6667C19.4271 20.6667 18.8393 20.5497 18.2908 20.3225C17.7423 20.0953 17.2439 19.7623 16.8241 19.3425C16.4043 18.9227 16.0713 18.4244 15.8441 17.8759C15.6169 17.3274 15.5 16.7395 15.5 16.1458Z" stroke="white" stroke-width="1.6" stroke-linecap="round" stroke-linejoin="round"/>
<path d="M6.45898 25.1868C6.45898 23.9878 6.93529 22.838 7.78311 21.9901C8.63093 21.1423 9.78082 20.666 10.9798 20.666H15.5007V25.1868C15.5007 26.3858 15.0243 27.5357 14.1765 28.3836C13.3287 29.2314 12.1788 29.7077 10.9798 29.7077C9.78082 29.7077 8.63093 29.2314 7.78311 28.3836C6.93529 27.5357 6.45898 26.3858 6.45898 25.1868Z" stroke="white" stroke-width="1.6" stroke-linecap="round" stroke-linejoin="round"/>
<path d="M6.45898 16.1458C6.45898 14.9468 6.93529 13.7969 7.78311 12.9491C8.63093 12.1013 9.78082 11.625 10.9798 11.625H15.5007V20.6667H10.9798C9.78082 20.6667 8.63093 20.1904 7.78311 19.3425C6.93529 18.4947 6.45898 17.3448 6.45898 16.1458Z" stroke="white" stroke-width="1.6" stroke-linecap="round" stroke-linejoin="round"/>
</svg>
