<?xml version="1.0" encoding="UTF-8" standalone="no"?>
<!DOCTYPE svg PUBLIC "-//W3C//DTD SVG 1.1//EN" "http://www.w3.org/Graphics/SVG/1.1/DTD/svg11.dtd">
<svg width="100%" height="100%" viewBox="0 0 498 499" version="1.1" xmlns="http://www.w3.org/2000/svg" xmlns:xlink="http://www.w3.org/1999/xlink" xml:space="preserve" xmlns:serif="http://www.serif.com/" style="fill-rule:evenodd;clip-rule:evenodd;stroke-linejoin:round;stroke-miterlimit:2;">
    <g transform="matrix(1,0,0,1,-22277.3,-325.641)">
        <g transform="matrix(1,0,0,1,20705.8,0)">
            <g transform="matrix(1,0,0,1,2059.79,541.207)">
                <path d="M0,70.293L-24.229,68.866L-209.237,57.976L-54.837,156.844L-31.164,172.003C-36.312,200.571 -59.72,231.817 -89.141,252.294C-117.709,273.946 -154.658,286.553 -183.416,282.625L-190.471,255.598L-237.944,73.78L-239.769,66.775L-241.601,73.78L-289.124,255.806L-296.129,282.625C-324.893,286.553 -361.843,273.946 -390.404,252.294C-419.825,231.817 -443.233,200.571 -448.387,172.003L-425.383,157.273L-270.371,58.014L-455.897,68.935L-478.964,70.293C-491.59,44.157 -491.021,5.116 -479.254,-28.745C-468.87,-63.055 -446.391,-94.97 -420.811,-108.695L-405.285,-95.962L-253.943,28.215L-248.884,32.364L-255.149,16.353L-322.36,-155.435L-333.792,-184.654C-312.835,-204.74 -275.531,-216.26 -239.694,-215.534C-203.855,-216.26 -166.552,-204.74 -145.595,-184.654L-157.027,-155.435L-224.238,16.353L-230.699,32.869L-230.984,33.103L-231.369,34.581L-230.699,32.869L-225.021,28.215L-74.361,-95.4L-58.153,-108.695C-32.573,-94.97 -10.093,-63.055 0.291,-28.745C12.058,5.116 12.626,44.157 0,70.293" style="fill:rgb(255,255,255);fill-rule:nonzero;"/>
            </g>
        </g>
    </g>
</svg>
