<svg width="773" height="123" viewBox="0 0 773 123" fill="none" xmlns="http://www.w3.org/2000/svg">
<path d="M90.7102 120.647C96.2317 106.841 96.3894 102.605 96.3894 102.134V71.227C96.3894 67.9324 96.2317 56.0089 82.3491 56.0089C77.6164 56.0089 73.0414 56.7934 68.4665 58.676L68.6242 102.448C68.6242 104.33 69.0975 110.292 74.4612 120.647H45.9072C51.4287 106.841 51.7443 102.605 51.7443 102.134V67.9324C51.7443 67.9324 51.7443 55.5383 36.7574 55.5383C33.4445 55.5383 29.0273 56.4796 23.979 58.5191L24.2946 102.134C24.2946 102.918 24.4523 111.39 30.2893 120.647H0C5.67925 113.744 5.837 104.644 5.837 102.448C5.837 89.8967 5.837 77.1888 5.837 64.4809C5.837 64.4809 5.837 55.852 0 50.5179C0 50.361 23.8213 39.5357 23.8213 39.5357V54.1263C26.8187 50.9885 38.9659 39.5357 50.64 39.5357C64.207 39.5357 67.6777 47.3801 68.3087 54.5969C70.2018 52.5574 82.9801 39.5357 95.1274 39.5357C112.796 39.5357 113.269 52.2436 113.269 59.9311L113.427 102.448C113.427 104.33 113.743 110.292 119.106 120.647H90.7102Z" fill="white"/>
<path d="M267.049 40.3201C282.667 40.3201 290.397 61.8138 290.397 80.0127C290.397 103.703 279.827 122.372 259.477 122.372C252.535 122.372 244.648 120.176 235.655 115.469C229.187 118.293 221.615 121.117 221.615 121.117V25.102C221.615 25.102 221.615 16.3163 215.778 10.9821L239.915 0V54.44C243.07 51.773 257.584 40.3201 267.049 40.3201ZM264.841 110.449C268.784 107.311 270.835 96.486 270.835 85.5038C270.835 75.1492 269.1 65.1084 266.103 61.1862C263.263 57.7347 258.372 56.6365 253.482 56.6365C247.961 56.6365 242.439 57.8916 239.915 59.1467C239.915 72.0115 239.915 83.4643 239.915 96.1722C239.915 96.7997 240.073 99.6237 240.704 102.448C243.228 112.332 256.637 116.724 264.841 110.449Z" fill="white"/>
<path d="M341.698 111.233C346.588 111.233 351.636 110.449 356.369 109.508C354.949 111.233 347.692 122.686 330.024 122.686C309.989 122.686 296.895 109.508 296.895 80.3265C296.895 57.1071 306.991 40.3201 330.181 40.3201C348.008 40.3201 354.949 51.773 354.949 51.773L319.612 95.2309C319.612 95.2309 319.454 96.1722 320.243 97.7411C326.237 110.449 333.021 111.233 341.698 111.233ZM310.935 60.4018C310.935 71.5408 317.719 89.1123 317.719 89.2691C317.719 89.2691 329.077 72.3253 331.759 68.2462C339.805 56.0089 331.443 52.2436 318.192 51.4592C312.67 51.1454 311.251 54.2832 310.935 60.4018Z" fill="white"/>
<path d="M421.481 74.6786C439.307 87.8571 445.775 92.25 445.775 102.918C445.775 106.997 443.251 122.843 412.173 122.843C390.403 122.843 382.199 109.978 382.199 109.978L397.028 94.9171C397.028 94.9171 406.809 112.645 427.318 112.802C429.526 112.802 431.735 111.861 433.628 109.978C433.628 106.213 424.163 100.879 409.807 91.1518C388.352 75.7768 386.301 67.4617 386.301 59.7742C386.301 52.0867 395.766 40.3201 413.593 40.3201C434.417 40.3201 439.938 48.6352 439.938 48.6352L432.839 67.7755C432.839 67.7755 418.01 51.4592 403.496 51.4592C398.922 51.4592 396.871 52.2436 396.871 53.9694C396.871 57.5778 407.125 64.1671 421.481 74.6786Z" fill="white"/>
<path d="M475.252 102.918C475.252 115.469 499.862 112.018 504.122 110.292C504.122 110.292 497.969 122.843 476.199 122.843C459.95 122.843 454.744 109.351 454.902 102.291C455.06 95.3877 456.795 50.361 456.795 50.361H449.223L474.937 24.0038V42.5166H493.71L490.713 50.361H475.252C475.252 50.361 475.252 100.565 475.252 102.918Z" fill="white"/>
<path d="M581.335 112.018C581.335 112.175 557.356 121.902 557.356 121.902V108.253C554.201 111.233 541.265 122.843 529.907 123H529.591C511.922 123 511.449 110.135 511.449 102.605V64.7946C511.449 64.7946 511.449 55.852 505.612 50.6747L528.329 40.3201V92.7207C528.329 92.7207 528.329 106.841 543.789 106.841C547.418 106.841 551.519 106.056 557.041 103.86V65.4222C557.041 65.4222 557.041 56.6365 551.046 51.3023L575.341 40.3201V97.898C575.341 97.898 575.341 106.684 581.335 112.018Z" fill="white"/>
<path d="M659.432 112.332C659.432 112.489 635.611 122.216 635.611 122.216V108.723C631.983 111.704 618.258 122.843 608.792 122.843C593.332 122.843 585.602 101.193 585.602 82.9936C585.602 59.3036 596.172 40.6339 616.522 40.6339C622.044 40.6339 628.354 42.0459 635.296 45.1837V26.2003C635.296 26.2003 635.296 17.4145 629.301 12.0804L653.438 0.941324V98.2117C653.438 98.2117 653.438 106.997 659.432 112.332ZM635.453 103.86V63.0689C635.453 61.0293 634.507 58.0485 633.245 56.1658C628.828 48.949 617.469 47.8508 611.474 52.4005C607.215 55.5383 605.322 66.8342 605.322 77.9732C605.322 88.014 606.899 97.898 609.897 101.82C612.736 105.272 617.627 106.37 622.517 106.37C627.723 106.37 632.771 105.115 635.453 103.86Z" fill="white"/>
<path d="M677.728 33.4171C667.947 27.926 663.215 17.7283 663.215 17.7283L678.044 3.45152C683.408 13.4923 692.084 17.8852 692.084 17.8852L677.728 33.4171ZM693.977 120.647H663.53C669.21 113.9 669.525 104.801 669.525 102.605V65.2653C669.525 65.2653 669.525 56.1658 663.53 51.3023L687.825 40.3201L687.983 102.134C687.983 102.918 688.14 111.39 693.977 120.647Z" fill="white"/>
<path d="M735.454 40.3201C760.379 40.3201 773 58.8329 773 82.3661C773 112.175 755.962 123 735.454 123C714.788 123 697.908 112.018 697.908 81.5816C697.908 51.1454 714.788 40.3201 735.454 40.3201ZM755.016 103.86C755.016 90.5242 755.331 77.6594 749.179 65.5791C743.657 54.7538 732.93 51.773 721.098 51.773C716.365 51.773 714.472 54.44 714.472 59.4605C714.472 72.639 716.208 85.19 721.887 97.2704C726.935 108.566 736.716 113.116 748.548 113.116C752.492 113.116 755.016 110.135 755.016 103.86Z" fill="white"/>
<path d="M197.504 59.1595C208.952 64.1637 211.583 75.2256 206.583 85.4974L173.62 82.4687L200.398 102.222C196.059 113.62 187.002 118.931 177.239 120L169.08 86.5513L160.922 120C149.351 119.288 140.72 114.688 138.551 102.222L164.606 82.5337L132.368 85.4974C127.368 75.2256 130.238 64.146 141.447 59.1595L165.792 78.1227L153.685 46.3865C160.527 39.5375 176.976 38.879 184.476 46.3865L172.37 78.1227L197.504 59.1595Z" fill="#505FEC"/>
</svg>
