<svg width="2476" height="394" viewBox="0 0 2476 394" fill="none" xmlns="http://www.w3.org/2000/svg">
<path d="M290.554 386.462C308.24 342.237 308.745 328.668 308.745 327.161V228.158C308.745 217.605 308.24 179.411 263.773 179.411C248.613 179.411 233.959 181.923 219.305 187.954L219.811 328.166C219.811 334.196 221.327 353.293 238.507 386.462H147.046C164.732 342.237 165.742 328.668 165.742 327.161V217.605C165.742 217.605 165.742 177.903 117.738 177.903C107.126 177.903 92.9774 180.918 76.8074 187.452L77.818 327.161C77.818 329.673 78.3233 356.811 97.0199 386.462H0C18.1912 364.349 18.6965 335.202 18.6965 328.166C18.6965 287.962 18.6965 247.255 18.6965 206.548C18.6965 206.548 18.6965 178.908 0 161.821C0 161.319 76.3021 126.643 76.3021 126.643V173.38C85.903 163.329 124.812 126.643 162.205 126.643C205.662 126.643 216.779 151.77 218.8 174.888C224.864 168.355 265.794 126.643 304.703 126.643C361.298 126.643 362.814 167.349 362.814 191.974L363.319 328.166C363.319 334.196 364.33 353.293 381.51 386.462H290.554Z" fill="white"/>
<path d="M855.386 129.156C905.412 129.156 930.172 198.005 930.172 256.301C930.172 332.186 896.317 391.99 831.131 391.99C808.898 391.99 783.632 384.954 754.829 369.878C734.111 378.923 709.856 387.969 709.856 387.969V80.4081C709.856 80.4081 709.856 52.2653 691.16 35.1786L768.473 0V174.385C778.579 165.842 825.067 129.156 855.386 129.156ZM848.312 353.796C860.945 343.745 867.514 309.069 867.514 273.89C867.514 240.722 861.955 208.559 852.354 195.995C843.259 184.939 827.594 181.421 811.929 181.421C794.244 181.421 776.558 185.441 768.473 189.462C768.473 230.671 768.473 267.357 768.473 308.064C768.473 310.074 768.978 319.12 770.999 328.166C779.084 359.827 822.036 373.898 848.312 353.796Z" fill="white"/>
<path d="M1094.49 356.309C1110.16 356.309 1126.33 353.796 1141.49 350.781C1136.94 356.309 1113.7 392.995 1057.1 392.995C992.926 392.995 950.985 350.781 950.985 257.306C950.985 182.929 983.325 129.156 1057.61 129.156C1114.71 129.156 1136.94 165.842 1136.94 165.842L1023.75 305.048C1023.75 305.048 1023.24 308.064 1025.77 313.089C1044.97 353.796 1066.7 356.309 1094.49 356.309ZM995.958 193.482C995.958 229.163 1017.69 285.449 1017.69 285.952C1017.69 285.952 1054.07 231.676 1062.66 218.61C1088.43 179.411 1061.65 167.349 1019.2 164.837C1001.52 163.832 996.968 173.883 995.958 193.482Z" fill="white"/>
<path d="M1350.05 239.214C1407.15 281.429 1427.86 295.5 1427.86 329.673C1427.86 342.74 1419.78 393.497 1320.23 393.497C1250.5 393.497 1224.22 352.288 1224.22 352.288L1271.72 304.043C1271.72 304.043 1303.05 360.832 1368.74 361.334C1375.82 361.334 1382.89 358.319 1388.96 352.288C1388.96 340.227 1358.64 323.14 1312.65 291.982C1243.93 242.732 1237.36 216.097 1237.36 191.472C1237.36 166.847 1267.68 129.156 1324.78 129.156C1391.48 129.156 1409.17 155.791 1409.17 155.791L1386.43 217.102C1386.43 217.102 1338.93 164.837 1292.44 164.837C1277.79 164.837 1271.22 167.349 1271.22 172.878C1271.22 184.436 1304.06 205.543 1350.05 239.214Z" fill="white"/>
<path d="M1522.28 329.673C1522.28 369.878 1601.11 358.821 1614.76 353.293C1614.76 353.293 1595.05 393.497 1525.32 393.497C1473.27 393.497 1456.59 350.278 1457.1 327.663C1457.6 305.551 1463.16 161.319 1463.16 161.319H1438.91L1521.27 76.8903V136.191H1581.4L1571.8 161.319H1522.28C1522.28 161.319 1522.28 322.135 1522.28 329.673Z" fill="white"/>
<path d="M1862.08 358.821C1862.08 359.324 1785.27 390.482 1785.27 390.482V346.76C1775.16 356.309 1733.73 393.497 1697.35 394H1696.34C1639.74 394 1638.22 352.791 1638.22 328.668V207.554C1638.22 207.554 1638.22 178.908 1619.53 162.324L1692.29 129.156V297.008C1692.29 297.008 1692.29 342.237 1741.81 342.237C1753.44 342.237 1766.57 339.724 1784.26 332.689V209.564C1784.26 209.564 1784.26 181.421 1765.06 164.334L1842.88 129.156V313.592C1842.88 313.592 1842.88 341.735 1862.08 358.821Z" fill="white"/>
<path d="M2112.23 359.827C2112.23 360.329 2035.93 391.487 2035.93 391.487V348.268C2024.31 357.816 1980.34 393.497 1950.03 393.497C1900.5 393.497 1875.74 324.145 1875.74 265.849C1875.74 189.964 1909.6 130.161 1974.79 130.161C1992.47 130.161 2012.68 134.684 2034.92 144.735V83.926C2034.92 83.926 2034.92 55.7832 2015.72 38.6964L2093.03 3.0153V314.597C2093.03 314.597 2093.03 342.74 2112.23 359.827ZM2035.42 332.689V202.025C2035.42 195.492 2032.39 185.944 2028.35 179.913C2014.2 156.796 1977.82 153.278 1958.62 167.852C1944.97 177.903 1938.91 214.087 1938.91 249.768C1938.91 281.931 1943.96 313.592 1953.56 326.156C1962.66 337.212 1978.32 340.73 1993.99 340.73C2010.66 340.73 2026.83 336.709 2035.42 332.689Z" fill="white"/>
<path d="M2170.83 107.043C2139.51 89.4541 2124.35 56.7882 2124.35 56.7882L2171.85 11.0561C2189.03 43.2194 2216.82 57.2908 2216.82 57.2908L2170.83 107.043ZM2222.88 386.462H2125.36C2143.55 364.852 2144.56 335.704 2144.56 328.668V209.061C2144.56 209.061 2144.56 179.913 2125.36 164.334L2203.18 129.156L2203.68 327.161C2203.68 329.673 2204.19 356.811 2222.88 386.462Z" fill="white"/>
<path d="M2355.74 129.156C2435.58 129.156 2476 188.457 2476 263.839C2476 359.324 2421.43 394 2355.74 394C2289.54 394 2235.47 358.821 2235.47 261.327C2235.47 163.832 2289.54 129.156 2355.74 129.156ZM2418.39 332.689C2418.39 289.972 2419.4 248.763 2399.7 210.066C2382.01 175.39 2347.65 165.842 2309.75 165.842C2294.59 165.842 2288.53 174.385 2288.53 190.467C2288.53 232.681 2294.09 272.885 2312.28 311.582C2328.45 347.765 2359.78 362.339 2397.68 362.339C2410.31 362.339 2418.39 352.791 2418.39 332.689Z" fill="white"/>
<path d="M666.181 279.23L653.617 278.49L557.683 272.843L637.746 324.11L650.021 331.971C647.352 346.784 635.214 362.987 619.958 373.605C605.144 384.832 585.985 391.369 571.072 389.333L567.414 375.318L542.797 281.038L541.851 277.406L540.901 281.038L516.258 375.426L512.626 389.333C497.711 391.369 478.551 384.832 463.741 373.605C448.485 362.987 436.347 346.784 433.674 331.971L445.603 324.332L525.983 272.863L429.78 278.526L417.819 279.23C411.272 265.677 411.567 245.433 417.668 227.875C423.053 210.083 434.709 193.534 447.973 186.417L456.024 193.02L534.501 257.411L537.125 259.562L533.876 251.26L499.024 162.181L493.096 147.029C503.963 136.614 523.307 130.64 541.89 131.017C560.474 130.64 579.817 136.614 590.684 147.029L584.756 162.181L549.904 251.26L546.554 259.824L546.406 259.945L546.207 260.712L546.554 259.824L549.498 257.411L627.622 193.311L636.026 186.417C649.291 193.534 660.948 210.083 666.332 227.875C672.434 245.433 672.728 265.677 666.181 279.23Z" fill="#505FEC"/>
</svg>
