<?xml version="1.0" standalone="no"?>
<!DOCTYPE svg PUBLIC "-//W3C//DTD SVG 20010904//EN"
 "http://www.w3.org/TR/2001/REC-SVG-20010904/DTD/svg10.dtd">
<svg version="1.0" xmlns="http://www.w3.org/2000/svg"
 width="700.000000pt" height="700.000000pt" viewBox="0 0 700.000000 700.000000"
 preserveAspectRatio="xMidYMid meet">
<metadata>
Created by potrace 1.14, written by Peter Selinger 2001-2017
</metadata>
<g transform="translate(0.000000,700.000000) scale(0.100000,-0.100000)"
fill="#000000" stroke="none">
<path d="M3299 6996 c-2 -2 -40 -6 -84 -10 -44 -4 -89 -9 -100 -11 -11 -3 -33
-6 -50 -9 -98 -14 -316 -69 -380 -95 -11 -5 -47 -19 -80 -31 -175 -66 -385
-195 -482 -296 l-23 -23 29 -78 c50 -134 428 -1122 854 -2238 101 -264 183
-482 181 -483 -1 -2 -62 43 -134 100 -73 56 -160 124 -193 150 -60 45 -807
626 -837 651 -8 7 -33 26 -55 42 -22 17 -49 37 -60 47 -37 30 -470 368 -580
453 -29 22 -101 78 -161 125 -60 47 -114 89 -121 93 -29 18 -349 -172 -473
-280 -230 -200 -378 -417 -466 -680 -20 -58 -37 -113 -39 -122 -2 -9 -8 -37
-14 -63 -33 -145 -36 -433 -5 -618 23 -140 88 -352 153 -493 l31 -69 82 7 c46
4 99 8 118 10 19 2 68 6 109 10 41 4 86 8 100 10 14 1 69 6 121 10 52 4 102 9
111 10 9 2 52 6 95 10 43 3 95 8 114 10 19 2 67 7 105 10 39 4 90 8 115 11 25
2 74 6 110 9 36 3 85 8 110 10 25 3 72 7 105 10 33 3 80 8 105 10 25 2 74 7
110 10 36 3 83 8 105 10 22 2 72 6 110 10 39 3 86 8 105 10 19 2 76 7 125 11
50 3 99 8 109 10 10 2 58 6 105 9 47 4 97 8 111 10 14 2 59 6 100 10 41 3 91
7 110 10 37 4 145 14 219 20 24 2 39 0 35 -5 -5 -4 -142 -108 -304 -230 -356
-268 -720 -543 -1010 -763 -118 -89 -387 -292 -598 -451 -210 -159 -382 -295
-382 -302 0 -7 7 -43 16 -81 9 -37 18 -79 20 -93 12 -62 97 -298 142 -392 249
-515 708 -830 1382 -947 162 -28 184 -31 357 -46 62 -6 63 -5 69 22 3 15 19
80 35 143 16 63 31 124 33 135 2 11 14 58 26 105 12 47 23 92 25 100 17 80 39
174 51 215 11 38 148 593 169 685 2 8 8 36 14 62 6 27 34 139 61 249 28 111
52 211 54 223 6 31 94 391 112 456 12 47 99 404 109 450 1 8 9 35 16 60 l12
45 98 -395 c54 -217 100 -406 103 -420 2 -14 16 -70 30 -125 22 -90 133 -538
141 -575 13 -54 101 -416 216 -890 17 -69 32 -132 34 -140 2 -8 20 -80 40
-160 21 -80 39 -161 42 -180 9 -60 19 -71 61 -64 210 31 211 31 342 64 248 63
462 151 662 271 428 258 744 627 958 1121 l49 112 -117 87 c-64 47 -243 179
-397 292 -154 113 -284 210 -290 214 -5 5 -122 91 -260 193 -259 190 -490 360
-562 414 -23 17 -52 39 -65 48 -19 14 -79 58 -194 143 -11 8 -122 90 -245 181
-123 90 -226 170 -228 176 -2 6 0 8 5 5 5 -3 45 -8 89 -12 44 -3 100 -8 125
-11 25 -2 72 -6 105 -9 73 -6 168 -15 215 -20 50 -6 144 -14 220 -20 36 -3 81
-7 100 -10 19 -2 69 -7 110 -10 41 -3 91 -8 110 -10 19 -2 71 -7 115 -10 44
-4 91 -8 105 -10 14 -2 63 -7 109 -10 47 -4 97 -8 113 -10 16 -2 63 -6 106
-10 77 -6 131 -11 207 -20 22 -2 72 -7 110 -10 39 -3 95 -8 125 -10 126 -12
177 -17 210 -20 19 -2 71 -7 115 -10 44 -4 94 -8 110 -10 17 -2 66 -7 110 -10
44 -4 87 -8 95 -10 9 -2 56 -6 106 -10 l91 -7 41 94 c75 173 142 409 159 564
14 122 8 391 -11 494 -54 300 -194 567 -411 785 -155 157 -285 249 -491 351
l-92 45 -368 -277 c-203 -153 -373 -282 -379 -286 -5 -4 -23 -18 -40 -31 -16
-13 -149 -113 -295 -223 -146 -109 -272 -204 -280 -211 -8 -7 -69 -53 -135
-102 -98 -73 -217 -162 -380 -285 -230 -175 -339 -255 -342 -253 -3 4 4 23
132 357 53 140 144 379 202 530 58 151 119 313 138 360 18 47 56 148 85 225
29 77 58 154 65 170 7 17 29 73 49 125 20 52 116 306 214 564 l179 469 -61 55
c-225 202 -570 345 -971 403 -71 10 -488 22 -496 15z"/>
</g>
</svg>
