<?xml version="1.0" standalone="no"?>
<!DOCTYPE svg PUBLIC "-//W3C//DTD SVG 20010904//EN"
 "http://www.w3.org/TR/2001/REC-SVG-20010904/DTD/svg10.dtd">
<svg version="1.0" xmlns="http://www.w3.org/2000/svg"
 width="998.000000pt" height="998.000000pt" viewBox="0 0 998.000000 998.000000"
 preserveAspectRatio="xMidYMid meet">
<metadata>
Created by potrace 1.14, written by Peter Selinger 2001-2017
</metadata>
<g transform="translate(0.000000,998.000000) scale(0.100000,-0.100000)"
fill="#000000" stroke="none">
<path d="M4709 9976 c-2 -2 -38 -6 -80 -10 -111 -9 -154 -15 -306 -42 -36 -6
-84 -16 -143 -29 -14 -4 -35 -8 -47 -11 -12 -2 -34 -9 -48 -14 -14 -5 -25 -7
-25 -5 0 2 -12 0 -27 -6 -16 -6 -35 -12 -43 -14 -8 -2 -37 -11 -65 -20 -27
-10 -54 -18 -60 -20 -11 -2 -59 -20 -90 -34 -11 -5 -47 -19 -80 -32 -107 -42
-395 -200 -395 -218 0 -3 -12 -12 -27 -19 -16 -6 -48 -30 -72 -51 -23 -22 -56
-51 -72 -64 l-30 -24 56 -144 c31 -79 60 -153 65 -164 13 -29 75 -189 76 -195
0 -3 9 -25 20 -50 10 -25 18 -48 16 -52 -1 -5 2 -8 8 -8 6 0 9 -3 8 -7 -3 -9
31 -101 53 -145 5 -10 9 -22 9 -28 0 -6 9 -29 19 -53 11 -23 38 -91 61 -152
40 -106 49 -129 70 -177 13 -32 134 -342 136 -348 1 -5 11 -32 38 -100 13 -32
27 -68 31 -80 1 -3 7 -18 14 -35 7 -16 30 -77 52 -135 41 -105 51 -131 69
-172 5 -13 19 -48 30 -78 11 -30 25 -64 30 -75 9 -18 52 -133 55 -145 1 -3 6
-16 12 -30 6 -14 20 -47 30 -75 11 -27 23 -59 28 -70 4 -11 9 -24 11 -30 1 -5
8 -23 15 -40 7 -16 13 -32 14 -35 1 -3 7 -18 14 -35 6 -16 34 -86 61 -155 27
-69 90 -230 141 -359 51 -129 92 -240 92 -248 0 -7 4 -13 8 -13 4 0 10 -12 14
-27 3 -16 13 -41 20 -58 7 -16 37 -91 65 -165 29 -74 58 -149 65 -165 8 -17
27 -67 44 -110 16 -44 54 -143 85 -220 31 -77 56 -144 56 -148 0 -5 -35 20
-77 55 -43 34 -84 67 -91 73 -7 5 -23 19 -35 30 -13 11 -43 36 -67 55 -25 19
-56 44 -70 57 -14 12 -91 76 -171 141 -176 143 -168 136 -201 164 -14 13 -44
37 -65 54 -21 17 -83 68 -138 113 -55 45 -115 94 -133 109 -37 29 -38 30 -187
154 -55 45 -106 87 -113 93 -7 5 -18 15 -25 20 -7 6 -48 39 -92 75 -44 35 -82
67 -85 70 -3 3 -27 23 -55 45 -27 22 -59 48 -70 57 -11 9 -88 72 -171 140 -83
68 -158 131 -166 139 -8 7 -27 23 -42 34 -16 11 -33 25 -40 30 -10 9 -198 163
-250 205 -10 8 -23 20 -30 25 -6 6 -85 71 -176 144 -91 74 -172 142 -182 152
-9 11 -20 19 -25 19 -5 0 -15 9 -23 20 -8 11 -18 20 -22 20 -4 0 -16 8 -26 18
-10 9 -35 31 -56 47 -21 17 -44 35 -50 40 -13 12 -112 93 -140 115 -10 8 -26
22 -35 30 -9 8 -50 42 -91 75 -41 32 -81 65 -88 72 -8 7 -30 26 -50 41 -21 15
-48 37 -62 50 -14 12 -32 20 -40 17 -32 -12 -126 -73 -213 -139 -112 -84 -377
-349 -377 -377 0 -5 -4 -9 -8 -9 -17 0 -210 -281 -281 -410 -41 -76 -161 -319
-161 -328 0 -5 -9 -27 -20 -50 -11 -22 -20 -47 -20 -55 0 -7 -4 -17 -10 -23
-5 -5 -11 -18 -13 -29 -2 -11 -7 -27 -10 -35 -11 -27 -38 -105 -42 -122 -2 -9
-9 -26 -15 -37 -6 -12 -8 -21 -5 -21 3 0 -1 -16 -9 -35 -9 -20 -15 -38 -16
-40 0 -3 0 -6 -1 -7 -10 -34 -70 -278 -74 -303 -3 -16 -10 -52 -15 -80 -5 -27
-12 -66 -14 -85 -2 -19 -7 -53 -10 -75 -3 -22 -8 -58 -11 -80 -10 -70 -13
-467 -5 -545 19 -164 18 -160 40 -265 17 -84 28 -128 48 -192 6 -17 8 -34 4
-37 -3 -3 0 -6 6 -6 7 0 11 -3 10 -7 -2 -10 5 -29 41 -113 31 -75 9 -69 221
-56 63 4 144 9 180 11 36 2 117 7 180 10 63 4 138 8 165 10 28 2 100 6 160 10
61 3 139 8 175 10 36 2 114 7 174 10 61 3 113 8 118 11 4 3 8 0 8 -6 0 -6 5
-8 12 -3 7 4 24 8 38 9 27 1 208 12 337 20 45 3 117 7 160 9 43 2 78 4 78 5 0
1 12 3 28 4 15 1 27 -2 27 -7 0 -4 6 -5 13 0 13 8 24 9 187 17 58 2 114 8 124
12 15 6 17 4 11 -6 -6 -10 -4 -11 6 -4 8 4 32 9 54 10 56 3 248 14 320 19 33
2 112 7 175 10 63 3 147 8 185 10 39 3 115 8 170 11 55 2 134 7 175 10 41 2
114 6 162 7 49 1 88 4 88 7 0 3 28 6 63 6 121 3 234 11 245 18 6 3 13 2 17 -4
4 -6 10 -8 15 -5 10 6 120 15 120 10 0 -2 -46 -32 -102 -68 -57 -35 -150 -95
-208 -133 -58 -38 -108 -67 -112 -66 -5 1 -8 -1 -8 -6 0 -4 -16 -16 -35 -26
-19 -11 -35 -23 -35 -28 0 -4 -4 -8 -10 -8 -12 0 -123 -70 -131 -82 -3 -6 -8
-9 -10 -7 -5 3 -89 -50 -107 -68 -7 -7 -17 -13 -22 -13 -7 0 -33 -16 -130 -80
-8 -5 -44 -28 -80 -51 -36 -23 -84 -55 -107 -70 -23 -16 -45 -29 -51 -29 -5 0
-17 -9 -27 -20 -10 -11 -22 -20 -26 -20 -7 0 -175 -105 -204 -127 -5 -4 -39
-26 -75 -47 -36 -22 -66 -43 -68 -48 -2 -4 -10 -8 -18 -8 -8 0 -14 -4 -14 -10
0 -5 -5 -10 -10 -10 -6 0 -47 -24 -93 -54 -45 -29 -136 -87 -202 -129 -66 -42
-124 -80 -130 -84 -29 -24 -207 -133 -215 -133 -6 0 -10 -4 -10 -9 0 -5 -13
-14 -30 -21 -16 -7 -30 -16 -30 -20 0 -4 -13 -13 -30 -20 -16 -7 -30 -16 -30
-21 0 -5 -7 -9 -15 -9 -8 0 -24 -9 -35 -20 -11 -11 -20 -18 -20 -14 0 3 -15
-5 -32 -18 -18 -13 -40 -28 -49 -33 -9 -6 -29 -19 -45 -29 -95 -64 -165 -106
-174 -106 -5 0 -10 -4 -10 -10 0 -5 -5 -10 -10 -10 -6 0 -16 -5 -23 -10 -20
-18 -117 -79 -117 -74 0 2 -8 -4 -19 -13 -10 -10 -42 -31 -71 -48 -28 -16 -57
-34 -64 -40 -6 -5 -19 -14 -29 -20 -57 -34 -284 -182 -295 -192 -8 -7 -18 -11
-23 -8 -5 4 -9 2 -9 -3 0 -5 -16 -17 -35 -28 -19 -10 -35 -22 -35 -26 0 -5 -5
-8 -11 -8 -6 0 -24 -9 -40 -21 -21 -14 -28 -27 -25 -42 15 -79 21 -108 29
-127 3 -8 11 -33 17 -55 13 -44 13 -46 60 -160 30 -71 70 -152 132 -265 33
-59 171 -263 196 -288 12 -13 22 -26 22 -30 0 -4 15 -23 33 -43 17 -20 52 -61
77 -90 59 -69 243 -253 304 -304 27 -22 58 -48 70 -58 11 -10 55 -44 96 -75
41 -32 77 -59 80 -62 3 -3 25 -19 50 -35 25 -16 49 -36 53 -42 4 -7 15 -13 22
-13 8 0 15 -4 15 -9 0 -5 14 -14 30 -21 17 -7 30 -17 30 -22 0 -5 8 -12 17
-16 10 -4 70 -38 133 -76 95 -57 387 -206 404 -206 3 0 17 -5 33 -12 15 -6 30
-12 33 -13 3 -1 14 -5 25 -9 11 -4 34 -12 50 -18 17 -5 39 -14 50 -19 66 -28
324 -93 455 -114 124 -19 414 -27 491 -12 33 7 38 12 45 45 9 46 7 38 39 157
14 55 28 107 30 115 2 8 15 60 30 115 15 55 28 107 30 115 2 8 15 59 30 113
15 54 28 106 30 116 2 10 10 41 19 69 8 29 15 54 16 57 0 3 0 6 1 8 0 1 2 9 4
17 2 8 9 33 15 55 6 22 13 51 16 65 3 14 10 43 16 65 5 22 10 41 9 42 0 2 6
21 14 43 8 22 12 40 8 40 -3 0 0 6 6 13 6 8 8 16 5 20 -3 3 0 15 6 27 7 13 13
32 15 44 1 11 21 93 45 181 23 88 43 167 45 175 2 8 8 35 15 60 7 25 14 52 15
60 2 8 4 15 5 15 1 0 3 7 5 15 3 12 23 88 50 192 3 10 7 26 9 35 3 10 14 51
24 90 11 40 17 73 15 73 -3 0 0 7 7 15 7 9 10 18 7 22 -4 3 -2 12 5 20 6 7 8
16 5 20 -3 3 0 18 8 33 8 15 12 30 9 33 -3 3 -1 14 4 24 6 10 12 32 15 50 3
17 8 36 11 41 3 4 7 19 10 33 11 55 16 74 32 128 9 31 17 63 19 71 3 13 35
136 162 620 13 52 27 103 29 112 2 10 7 28 10 40 3 13 7 30 9 38 2 8 4 16 5
18 3 3 5 10 15 57 13 56 12 55 15 58 1 1 3 9 5 17 2 8 9 33 15 55 6 22 12 49
14 60 2 11 5 21 6 23 1 1 4 7 5 12 1 6 3 11 5 13 1 1 3 11 5 22 4 26 7 36 45
180 17 66 38 147 47 180 15 61 33 94 33 63 0 -9 18 -85 41 -169 22 -83 43
-160 45 -170 8 -35 12 -54 29 -114 24 -88 27 -98 30 -115 1 -8 5 -22 8 -30 4
-8 8 -27 11 -42 3 -15 7 -31 10 -36 3 -5 7 -19 10 -33 9 -44 19 -84 147 -569
21 -80 52 -199 69 -265 17 -66 49 -190 71 -275 23 -85 43 -166 45 -179 3 -13
10 -33 15 -43 6 -11 8 -22 5 -25 -3 -3 1 -18 10 -34 8 -16 13 -29 10 -29 -2 0
5 -33 15 -72 18 -66 23 -86 34 -138 2 -8 4 -15 5 -15 2 0 5 -14 14 -53 3 -12
7 -26 10 -30 3 -5 7 -19 9 -33 3 -13 26 -105 52 -204 26 -99 49 -187 50 -195
2 -8 20 -76 40 -150 20 -74 38 -144 40 -155 7 -36 13 -60 15 -60 2 0 9 -30 14
-55 2 -8 6 -22 9 -30 7 -20 57 -209 62 -235 2 -11 10 -45 18 -75 9 -30 32
-118 52 -195 30 -114 63 -242 79 -300 2 -5 6 -23 11 -40 4 -16 14 -53 21 -81
l14 -50 48 -4 c80 -6 293 -4 367 3 97 10 139 17 260 43 92 20 103 23 175 44
25 8 47 14 50 15 33 9 85 27 128 44 28 11 52 18 52 14 0 -3 8 1 18 10 9 8 19
15 22 14 19 -6 290 123 409 195 34 21 65 38 68 38 7 0 231 150 247 165 8 8 17
15 20 15 6 0 163 119 241 183 110 90 310 286 373 366 22 27 42 48 45 45 3 -3
8 4 12 15 3 12 11 21 16 21 6 0 7 4 4 10 -3 5 -2 10 3 10 5 0 29 28 53 61 24
34 49 66 54 73 6 6 16 23 24 39 8 15 18 27 23 27 4 0 8 6 8 14 0 8 4 16 9 18
16 6 196 336 206 378 1 3 7 18 13 33 7 16 12 34 12 41 0 6 4 16 8 22 5 5 15
29 22 54 7 25 16 49 19 55 3 5 6 25 8 44 2 19 7 40 12 46 19 25 10 64 -18 84
-16 12 -32 21 -35 21 -4 0 -16 9 -28 20 -12 11 -28 20 -35 20 -7 0 -13 4 -13
9 0 5 -13 14 -29 21 -16 6 -37 19 -48 28 -10 9 -31 24 -46 32 -43 25 -289 182
-323 207 -17 13 -36 23 -42 23 -7 0 -12 5 -12 10 0 6 -7 10 -15 10 -8 0 -15 5
-15 10 0 6 -4 10 -10 10 -5 0 -69 39 -142 86 -73 48 -153 99 -178 115 -25 16
-49 32 -55 36 -5 5 -22 14 -37 22 -16 8 -28 18 -28 23 0 4 -6 8 -13 8 -8 0
-24 9 -37 20 -13 11 -27 20 -32 20 -5 0 -14 5 -21 11 -15 13 -170 113 -219
141 -21 12 -38 25 -38 30 0 4 -5 8 -10 8 -6 0 -50 25 -98 57 -48 31 -118 76
-157 101 -38 24 -82 53 -97 63 -15 10 -32 19 -38 19 -5 0 -10 4 -10 8 0 5 -10
14 -22 20 -54 28 -312 195 -316 204 -2 5 -10 8 -17 8 -7 0 -27 11 -43 25 -17
14 -33 25 -37 25 -3 0 -21 11 -39 25 -18 14 -35 25 -38 25 -3 0 -52 31 -109
68 -57 38 -122 79 -144 92 -22 13 -42 27 -45 30 -3 3 -27 19 -54 35 -27 17
-59 37 -71 45 -13 8 -51 33 -86 54 -35 22 -109 69 -165 105 -55 37 -108 71
-117 76 -72 44 -252 162 -262 171 -6 6 -20 14 -30 18 -11 3 -31 14 -43 24 -23
18 -23 18 45 16 37 -1 111 -5 163 -9 52 -3 136 -8 185 -10 50 -3 122 -7 160
-10 39 -2 107 -6 152 -9 45 -2 88 -8 94 -12 8 -5 9 -3 4 6 -5 9 -4 11 3 6 7
-4 51 -9 100 -12 48 -2 123 -6 167 -9 91 -6 273 -16 325 -18 19 -1 38 -6 42
-12 5 -6 8 -5 8 3 0 9 7 11 22 6 12 -3 60 -8 107 -10 81 -3 116 -5 351 -20 52
-3 125 -7 162 -8 38 0 68 -3 68 -6 0 -3 30 -5 68 -6 37 0 117 -4 177 -8 120
-7 337 -19 373 -20 12 0 22 -4 22 -8 0 -5 8 -4 19 1 10 6 20 8 23 6 2 -3 42
-7 89 -10 46 -2 127 -7 179 -10 52 -4 129 -8 170 -10 41 -2 111 -6 155 -9 44
-3 121 -8 170 -11 50 -3 124 -7 165 -9 41 -3 129 -7 195 -11 205 -12 186 -14
208 25 11 19 19 35 18 35 -1 0 5 17 13 37 9 21 18 45 20 55 3 17 6 26 23 71 3
9 7 20 8 25 2 4 3 8 4 10 1 1 4 17 7 35 2 18 9 42 14 53 6 10 9 19 6 19 -3 0
0 15 5 33 6 17 12 48 14 67 2 19 6 49 9 65 29 186 35 506 12 687 -3 18 -7 60
-11 93 -4 33 -9 71 -11 85 -3 14 -7 39 -9 55 -3 17 -7 40 -10 53 -6 27 -10 46
-20 97 -9 45 -12 54 -14 58 -1 1 -4 18 -7 37 -2 19 -8 38 -13 43 -5 5 -7 16
-4 23 3 8 1 14 -4 14 -5 0 -10 7 -10 15 0 18 -22 94 -34 117 -5 10 -9 24 -9
32 0 8 -5 27 -12 43 -6 15 -12 30 -13 33 -11 44 -74 218 -98 270 -11 25 -42
91 -68 148 -27 56 -48 105 -48 109 0 3 -3 9 -8 12 -7 5 -29 42 -72 125 -9 17
-24 39 -33 50 -10 11 -18 26 -18 33 0 7 -4 13 -10 13 -5 0 -10 5 -10 11 0 20
-203 294 -229 309 -9 5 -12 10 -8 10 5 0 2 6 -5 14 -84 88 -172 177 -201 203
-59 53 -198 157 -270 203 -73 46 -74 46 -133 -6 -12 -11 -37 -31 -55 -46 -19
-14 -44 -35 -56 -45 -12 -10 -41 -34 -64 -53 -23 -19 -50 -42 -62 -50 -11 -8
-31 -25 -44 -37 -13 -13 -26 -23 -29 -23 -3 0 -22 -15 -42 -34 -20 -19 -62
-53 -92 -77 -30 -23 -57 -45 -60 -49 -3 -3 -27 -24 -55 -45 -27 -22 -59 -47
-70 -57 -17 -14 -83 -68 -191 -156 -12 -9 -41 -34 -65 -54 -42 -35 -185 -152
-279 -228 -24 -19 -54 -45 -66 -57 -13 -13 -26 -23 -28 -23 -5 0 -38 -26 -70
-55 -6 -6 -47 -40 -91 -75 -44 -36 -87 -72 -96 -80 -9 -8 -29 -25 -45 -37 -16
-12 -39 -30 -51 -40 -32 -27 -52 -43 -123 -101 -36 -29 -77 -64 -92 -77 -15
-14 -29 -25 -33 -25 -3 0 -16 -11 -29 -25 -13 -14 -28 -25 -35 -25 -6 0 -11
-3 -11 -8 0 -4 -34 -34 -75 -66 -41 -32 -75 -63 -75 -69 0 -6 -3 -7 -7 -4 -3
4 -11 1 -17 -7 -6 -7 -47 -41 -91 -77 -44 -35 -82 -66 -85 -69 -3 -3 -27 -23
-54 -45 -27 -21 -61 -50 -74 -62 -14 -13 -28 -23 -31 -23 -4 0 -23 -15 -42
-32 -19 -18 -74 -64 -123 -103 -48 -38 -96 -77 -105 -86 -9 -8 -90 -76 -181
-149 -91 -74 -171 -140 -178 -147 -8 -8 -30 -26 -50 -41 -21 -15 -41 -32 -47
-38 -5 -5 -32 -27 -60 -49 -27 -21 -55 -43 -60 -49 -6 -6 -29 -26 -53 -44 -44
-34 -49 -29 -24 28 17 40 33 85 34 90 0 3 5 14 11 25 6 11 12 25 13 30 2 11
149 387 164 420 28 62 57 144 52 149 -3 3 1 6 8 6 7 0 11 2 8 6 -3 3 10 42 29
87 19 45 39 98 45 117 5 19 14 39 19 45 5 5 9 14 9 21 0 6 8 29 17 50 9 22 17
41 18 44 1 3 5 14 10 25 4 11 17 43 27 70 10 28 23 59 28 70 18 41 110 280
111 290 1 6 6 19 12 30 6 11 12 22 12 25 1 3 7 19 14 35 6 17 19 50 28 75 9
25 21 50 26 57 5 7 6 17 2 23 -3 5 -2 10 2 10 5 0 20 32 33 70 13 39 27 70 30
70 3 0 6 9 7 20 1 10 9 34 17 52 13 29 131 326 189 478 12 30 20 58 19 63 -1
4 2 7 8 7 6 0 9 3 8 8 -3 6 60 171 134 352 17 41 31 80 33 85 1 6 7 21 12 35
6 14 31 77 56 140 24 63 48 124 52 135 5 11 9 22 10 25 1 3 7 19 14 35 7 17
23 57 36 90 13 33 29 74 36 90 15 35 16 40 18 59 0 8 8 22 17 30 8 9 13 16 10
16 -4 0 1 17 10 38 9 20 17 42 18 47 3 10 20 54 33 85 3 8 7 17 7 20 2 8 126
322 141 355 30 68 29 75 -8 110 -51 48 -165 135 -177 135 -5 0 -10 5 -10 10 0
6 -7 10 -15 10 -8 0 -15 4 -15 9 0 5 -8 11 -17 14 -20 7 -75 39 -83 48 -4 6
-218 112 -230 115 -3 0 -18 6 -35 13 -43 18 -139 55 -147 57 -5 1 -10 3 -13 4
-3 1 -9 4 -15 5 -5 1 -11 3 -12 5 -2 1 -10 3 -18 5 -8 2 -55 16 -105 30 -49
15 -101 29 -114 31 -12 3 -51 11 -85 19 -33 8 -77 17 -96 20 -19 3 -46 8 -60
10 -51 11 -67 13 -135 20 -38 4 -83 10 -100 12 -37 5 -631 13 -636 9z"/>
</g>
</svg>
